#!OML:ASF I:\Actors\actors\Patient Classification 2\Patient 1\Session 1\actor1.ASF
:FULLY-SPECIFIED
:DEGREES
280
root -0.307102 17.558 5.74323 0.0846544 -1.58057 -6.6755
lowerback 15.81 2.11994 2.23425
upperback 1.73412 3.38394 2.61134
thorax -7.04255 1.6157 0.787989
lowerneck -13.2283 -8.94863 -3.34804
upperneck -9.88366 -11.1827 7.40893
head -0.299253 -5.4725 2.45349
rclavicle -7.51655e-015 -2.28602e-014
rhumerus -13.7843 14.6372 -59.1877
rradius 86.3803
rwrist -7.79697
rhand -18.3623 -38.3709
rfingers 7.12502
rthumb 7.9207 -68.2025
lclavicle -7.51655e-015 -2.28602e-014
lhumerus -33.0013 -17.7118 83.888
lradius 68.3867
lwrist 11.3402
lhand -4.01185 -18.0448
lfingers 7.12502
lthumb 21.7426 10.7541
rfemur 24.7721 -3.75317 19.5533
rtibia -31.0596
rfoot 1.90292 -17.9994
rtoes -8.80166
lfemur 28.1744 8.72898 -11.3644
ltibia -41.3627
lfoot 14.6662 9.66567
ltoes -14.3679
281
root -0.336739 17.541 5.74305 -0.00772913 -1.38806 -6.70954
lowerback 15.334 2.10759 2.26554
upperback 1.7446 3.33624 2.36535
thorax -6.7507 1.59286 0.53677
lowerneck -13.0086 -9.18245 -3.56078
upperneck -9.65663 -11.4747 7.75312
head -0.208276 -5.61101 2.58569
rclavicle -2.84138e-014 -1.82385e-014
rhumerus -8.86958 13.7312 -55.2043
rradius 88.4548
rwrist -7.76298
rhand -22.5125 -41.0331
rfingers 7.12502
rthumb 3.91384 -70.9769
lclavicle -2.84138e-014 -1.82385e-014
lhumerus -32.5198 -18.0858 81.7666
lradius 69.2577
lwrist 11.8332
lhand -4.00002 -17.3199
lfingers 7.12502
lthumb 21.7539 11.4777
rfemur 25.112 -4.03766 19.6762
rtibia -31.5166
rfoot 2.16459 -18.1228
rtoes -8.98822
lfemur 28.2253 8.60433 -11.1835
ltibia -41.3345
lfoot 14.5823 9.55048
ltoes -15.0554
282
root -0.365336 17.5393 5.76347 -0.180278 -1.26115 -6.45326
lowerback 14.4617 2.08253 1.92518
upperback 1.9638 3.19525 2.15777
thorax -6.04157 1.54069 0.573197
lowerneck -12.9188 -9.3746 -3.84236
upperneck -9.45033 -11.7011 8.10408
head -0.0998935 -5.71308 2.7306
rclavicle -1.77912e-014 -4.37326e-015
rhumerus -4.08629 10.9685 -51.2638
rradius 90.6334
rwrist -4.51387
rhand -23.0793 -41.4307
rfingers 7.12502
rthumb 3.36652 -71.3839
lclavicle -1.77912e-014 -4.37326e-015
lhumerus -31.8828 -18.8175 79.5203
lradius 70.1857
lwrist 12.7793
lhand -3.63024 -16.6336
lfingers 7.12502
lthumb 22.109 12.1223
rfemur 25.4465 -4.38109 19.4305
rtibia -31.6315
rfoot 2.21184 -18.0644
rtoes -8.73463
lfemur 28.2597 8.50677 -11.3206
ltibia -40.9111
lfoot 14.1709 9.4275
ltoes -15.3202
283
root -0.39891 17.5581 5.79276 -0.449931 -1.26996 -6.11102
lowerback 14.4027 2.14193 2.06273
upperback 1.66971 3.26447 1.5831
thorax -6.27894 1.56103 -0.127352
lowerneck -12.8766 -9.78188 -4.17
upperneck -8.69004 -12.2319 8.62303
head 0.234439 -5.9533 2.89887
rclavicle 3.57812e-015 -1.59028e-015
rhumerus 0.211049 8.88965 -46.678
rradius 91.5258
rwrist -2.91995
rhand -24.8992 -39.2544
rfingers 7.12502
rthumb 1.60892 -69.2281
lclavicle 3.57812e-015 -1.59028e-015
lhumerus -31.8393 -20.8954 77.0022
lradius 71.1813
lwrist 13.8915
lhand -2.80316 -15.8511
lfingers 7.12502
lthumb 22.9029 12.8088
rfemur 25.7229 -4.60968 19.1037
rtibia -31.4275
rfoot 2.0863 -17.9861
rtoes -8.12309
lfemur 28.2534 8.48398 -11.5089
ltibia -40.0871
lfoot 13.4759 9.33824
ltoes -15.4762
284
root -0.441552 17.5964 5.8264 -0.697541 -1.33128 -5.80641
lowerback 14.1755 2.20013 2.13663
upperback 1.44475 3.31759 1.06751
thorax -6.35569 1.57707 -0.718301
lowerneck -12.7173 -10.1622 -4.53875
upperneck -8.16608 -12.7205 9.19703
head 0.483821 -6.17671 3.10715
rclavicle 8.59744e-015 3.18055e-015
rhumerus 5.33729 6.23315 -41.8393
rradius 91.8615
rwrist -1.773
rhand -26.5289 -41.2997
rfingers 7.12502
rthumb 0.0348769 -71.2794
lclavicle 8.59744e-015 3.18055e-015
lhumerus -31.5135 -23.1979 74.2421
lradius 72.0961
lwrist 14.9129
lhand -1.74806 -15.1656
lfingers 7.12502
lthumb 23.915 13.3652
rfemur 25.7604 -4.63164 18.8916
rtibia -30.8052
rfoot 1.69221 -17.9645
rtoes -7.15338
lfemur 28.0057 8.37454 -11.6271
ltibia -38.7996
lfoot 12.5332 9.34239
ltoes -15.461
285
root -0.490353 17.6427 5.86731 -0.899546 -1.33049 -5.43748
lowerback 13.8655 2.21669 2.19897
upperback 1.18182 3.31022 0.526121
thorax -6.42678 1.56274 -1.31539
lowerneck -12.4057 -10.5149 -4.90016
upperneck -7.7897 -13.1778 9.72225
head 0.658936 -6.39113 3.31223
rclavicle 3.64273e-014 1.74931e-014
rhumerus 9.35464 2.49299 -38.3442
rradius 91.8332
rwrist 0.0689378
rhand -28.1491 -41.9449
rfingers 7.12502
rthumb -1.5299 -71.9191
lclavicle 3.64273e-014 1.74931e-014
lhumerus -31.091 -25.4977 71.3025
lradius 72.934
lwrist 15.741
lhand -0.516764 -14.7266
lfingers 7.12502
lthumb 25.0953 13.6443
rfemur 25.6119 -4.46474 18.6631
rtibia -29.7989
rfoot 0.976592 -17.9987
rtoes -5.90678
lfemur 27.5411 8.04365 -11.8263
ltibia -37.1345
lfoot 11.4392 9.45609
ltoes -15.4855
286
root -0.542543 17.7188 5.91683 -1.01103 -1.27635 -5.04597
lowerback 13.5794 2.21094 2.34163
upperback 0.805188 3.28637 -0.0354407
thorax -6.62734 1.53327 -1.98065
lowerneck -12.0935 -10.882 -5.38562
upperneck -7.44631 -13.6434 10.2601
head 0.840052 -6.60725 3.5434
rclavicle 1.47598e-014 0
rhumerus 13.2445 -1.02725 -34.6226
rradius 90.5255
rwrist 2.12123
rhand -29.9133 -43.0048
rfingers 7.12502
rthumb -3.23376 -72.9601
lclavicle 1.47598e-014 0
lhumerus -30.662 -27.663 68.3398
lradius 73.6529
lwrist 16.3262
lhand 0.608696 -14.355
lfingers 7.12502
lthumb 26.1733 13.8607
rfemur 25.1754 -4.12244 18.474
rtibia -28.3971
rfoot 0.0600436 -18.0961
rtoes -4.83917
lfemur 26.811 7.46427 -12.089
ltibia -35.1259
lfoot 10.1493 9.75184
ltoes -15.8562
287
root -0.599592 17.8035 5.97125 -1.07776 -1.24353 -4.67885
lowerback 13.2049 2.2297 2.49446
upperback 0.428569 3.29404 -0.576528
thorax -6.7779 1.51821 -2.63262
lowerneck -11.8084 -11.2628 -5.89416
upperneck -7.18798 -14.1241 10.8099
head 1.00809 -6.83148 3.78274
rclavicle -1.81888e-014 -8.74653e-015
rhumerus 16.9262 -4.66753 -31.2786
rradius 88.3897
rwrist 5.53923
rhand -31.7765 -44.2914
rfingers 7.12502
rthumb -5.03293 -74.2117
lclavicle -1.81888e-014 -8.74653e-015
lhumerus -30.0056 -29.4959 65.3936
lradius 74.1851
lwrist 16.6936
lhand 1.33223 -13.9529
lfingers 7.12502
lthumb 26.8658 14.1582
rfemur 24.5768 -3.63604 18.3596
rtibia -26.7388
rfoot -0.953911 -18.1686
rtoes -4.22653
lfemur 25.9872 6.67639 -12.3524
ltibia -32.9671
lfoot 8.7369 10.2689
ltoes -15.8613
288
root -0.675427 17.8721 6.03376 -1.8837 -0.912538 -4.40692
lowerback 13.2844 2.11015 2.46845
upperback 0.389813 3.10779 -0.946839
thorax -6.85532 1.42019 -2.9816
lowerneck -11.5986 -11.5806 -6.22543
upperneck -7.05116 -14.533 11.1681
head 1.11468 -7.02643 3.93243
rclavicle -3.55825e-014 7.95139e-016
rhumerus 20.8186 -8.3594 -28.4318
rradius 85.1125
rwrist 10.2194
rhand -34.2252 -44.6743
rfingers 7.12502
rthumb -7.39698 -74.525
lclavicle -3.55825e-014 7.95139e-016
lhumerus -29.1484 -30.6612 62.4841
lradius 74.6194
lwrist 17.1149
lhand 1.69891 -13.5185
lfingers 7.12502
lthumb 27.2166 14.5382
rfemur 24.7847 -3.02019 18.4341
rtibia -24.7911
rfoot -2.6413 -18.3205
rtoes -2.98455
lfemur 25.9524 5.54072 -12.3685
ltibia -30.7462
lfoot 7.32581 10.7171
ltoes -16.2936
289
root -0.723389 17.9301 6.07882 -2.72534 -1.10906 -4.15362
lowerback 14.4327 2.14979 3.46399
upperback -0.214064 3.29307 -1.78191
thorax -8.0343 1.41504 -4.55995
lowerneck -11.3413 -12.0716 -6.41609
upperneck -6.38057 -15.2352 11.4628
head 1.40337 -7.36102 3.99475
rclavicle -5.79457e-014 1.82882e-014
rhumerus 23.7435 -11.6612 -26.2642
rradius 80.7309
rwrist 16.0358
rhand -35.9355 -44.6521
rfingers 7.12502
rthumb -9.04759 -74.438
lclavicle -5.79457e-014 1.82882e-014
lhumerus -28.5959 -32.5457 59.5087
lradius 75.1174
lwrist 18.0451
lhand 1.83408 -13.0678
lfingers 7.12502
lthumb 27.3459 14.9685
rfemur 24.8098 -2.32861 18.3539
rtibia -22.7905
rfoot -3.94754 -18.11
rtoes -1.19215
lfemur 26.1195 4.35158 -12.6055
ltibia -28.7403
lfoot 6.01274 11.7312
ltoes -16.5053
290
root -0.807941 17.9719 6.14044 -3.78446 -0.772361 -3.99012
lowerback 15.1793 2.02583 3.8562
upperback -0.521433 3.17651 -2.32395
thorax -8.75235 1.29687 -5.40685
lowerneck -11.3525 -12.446 -6.48029
upperneck -5.67977 -15.7667 11.9364
head 1.58313 -7.59415 3.69379
rclavicle -3.61291e-014 -3.97569e-015
rhumerus 27.0682 -14.7887 -24.5877
rradius 75.3371
rwrist 22.1003
rhand -37.2386 -45.4461
rfingers 7.12502
rthumb -10.3048 -75.1737
lclavicle -3.61291e-014 -3.97569e-015
lhumerus -27.8103 -33.7353 56.6543
lradius 75.5736
lwrist 19.2262
lhand 1.80064 -12.6051
lfingers 7.12502
lthumb 27.3139 15.4362
rfemur 25.3221 -1.64035 18.6194
rtibia -20.8263
rfoot -5.5994 -18.0953
rtoes 0.209876
lfemur 26.6801 3.10923 -12.5389
ltibia -27.072
lfoot 5.07178 12.2813
ltoes -16.8042
291
root -0.877837 17.9998 6.18517 -4.68972 -0.716841 -3.86
lowerback 15.915 1.89254 4.2813
upperback -0.837506 3.06626 -2.74414
thorax -9.48808 1.17432 -6.15023
lowerneck -11.4785 -12.7468 -6.76719
upperneck -4.99026 -16.1936 12.1718
head 1.88913 -7.77409 3.72793
rclavicle 3.24267e-014 -3.18055e-015
rhumerus 30.5283 -17.523 -23.029
rradius 69.0967
rwrist 28.0252
rhand -37.0214 -44.4755
rfingers 7.12502
rthumb -10.0953 -74.2133
lclavicle 3.24267e-014 -3.18055e-015
lhumerus -27.1194 -34.2161 54.039
lradius 76.1665
lwrist 20.4241
lhand 1.7207 -12.0559
lfingers 7.12502
lthumb 27.2374 15.9975
rfemur 25.6099 -0.918678 18.8476
rtibia -18.9849
rfoot -6.97511 -17.9128
rtoes 1.03773
lfemur 27.302 1.99147 -12.5544
ltibia -25.8737
lfoot 4.48702 13.0597
ltoes -16.6964
